HIERARCHY
ROOT Hips
{
    OFFSET 0.0 0.0 0.0
    CHANNELS 6 Xposition Yposition Zposition Zrotation Xrotation Yrotation
    JOINT LeftUpLeg
    {
        OFFSET 13.369526841432876 0.0 0.0
        CHANNELS 3 Zrotation Xrotation Yrotation
        JOINT LeftLeg
        {
            OFFSET 0.0 0.0 -52.097026264747214
            CHANNELS 3 Zrotation Xrotation Yrotation
            JOINT LeftFoot
            {
                OFFSET 0.0 0.0 -41.0304722306398
                CHANNELS 3 Zrotation Xrotation Yrotation
                JOINT LeftToeBase
                {
                    OFFSET 0.0 -11.058210382269715 0.0
                    CHANNELS 3 Zrotation Xrotation Yrotation
                    End Site
                    {
                        OFFSET 0 0 0
                    }
                }
            }
        }
    }
    JOINT RightUpLeg
    {
        OFFSET -13.369526841432876 0.0 0.0
        CHANNELS 3 Zrotation Xrotation Yrotation
        JOINT RightLeg
        {
            OFFSET 0.0 0.0 -52.097026264747214
            CHANNELS 3 Zrotation Xrotation Yrotation
            JOINT RightFoot
            {
                OFFSET 0.0 0.0 -41.0304722306398
                CHANNELS 3 Zrotation Xrotation Yrotation
                JOINT RightToeBase
                {
                    OFFSET 0.0 -11.058210382269715 0.0
                    CHANNELS 3 Zrotation Xrotation Yrotation
                    End Site
                    {
                        OFFSET 0 0 0
                    }
                }
            }
        }
    }
    JOINT Spine
    {
        OFFSET 0.0 0.0 11.822208291482081
        CHANNELS 3 Zrotation Xrotation Yrotation
        JOINT Spine1
        {
            OFFSET 0.0 0.0 11.471513356889483
            CHANNELS 3 Zrotation Xrotation Yrotation
            JOINT Spine2
            {
                OFFSET 0.0 0.0 11.471513356889483
                CHANNELS 3 Zrotation Xrotation Yrotation
                JOINT Spine3
                {
                    OFFSET 0.0 0.0 11.471513356889478
                    CHANNELS 3 Zrotation Xrotation Yrotation
                    JOINT Spine4
                    {
                        OFFSET 0.0 0.0 11.471513356889488
                        CHANNELS 3 Zrotation Xrotation Yrotation
                        JOINT RightShoulder
                        {
                            OFFSET -22.120910896111607 0.0 0.0
                            CHANNELS 3 Zrotation Xrotation Yrotation
                            JOINT RightArm
                            {
                                OFFSET -32.63216859224583 0.0 0.0
                                CHANNELS 3 Zrotation Xrotation Yrotation
                                JOINT RightForeArm
                                {
                                    OFFSET -32.230719730998395 0.0 0.0
                                    CHANNELS 3 Zrotation Xrotation Yrotation
                                    JOINT RightHand
                                    {
                                        OFFSET -11.168754675699436 0.0 0.0
                                        CHANNELS 3 Zrotation Xrotation Yrotation
                                        End Site
                                        {
                                            OFFSET 0 0 0
                                        }
                                    }
                                }
                            }
                        }
                        JOINT LeftShoulder
                        {
                            OFFSET 22.120910896111607 0.0 0.0
                            CHANNELS 3 Zrotation Xrotation Yrotation
                            JOINT LeftArm
                            {
                                OFFSET 32.63216859224583 0.0 0.0
                                CHANNELS 3 Zrotation Xrotation Yrotation
                                JOINT LeftForeArm
                                {
                                    OFFSET 32.230719730998395 0.0 0.0
                                    CHANNELS 3 Zrotation Xrotation Yrotation
                                    JOINT LeftHand
                                    {
                                        OFFSET 11.168754675699436 0.0 0.0
                                        CHANNELS 3 Zrotation Xrotation Yrotation
                                        End Site
                                        {
                                            OFFSET 0 0 0
                                        }
                                    }
                                }
                            }
                        }
                        JOINT Neck
                        {
                            OFFSET 0.0 0.0 11.471513407341419
                            CHANNELS 3 Zrotation Xrotation Yrotation
                            JOINT Head
                            {
                                OFFSET 0.0 0.0 25.96941054998569
                                CHANNELS 3 Zrotation Xrotation Yrotation
                                End Site
                                {
                                    OFFSET 0 0 0
                                }
                            }
                        }
                    }
                }
            }
        }
    }
}
MOTION
Frames: 4
Frame Time: 0.03333333333333333
61.00315732955933 -46.16291134357453 384.0083456039429 -167.15490857833277 -72.87437105352068 -165.41508795504973 -17.710520631092535 24.963684298971387 33.50716875844971 28.111018863525953 -65.41822455499154 -42.59153363908974 -117.24765804761513 -3.1805546814635168e-15 120.5609970099837 0.0 0.0 -7.951386703658792e-16 -27.084470399067506 -21.442426213960438 -14.411214197732194 146.639679401793 40.703808073365586 -129.7102385528431 -92.19492857947556 -3.1805546814635168e-15 -41.004768966294776 0.0 0.0 0.0 0.04846313169636557 1.3074041345235259 -3.148075390905866 -1.987846675914698e-16 -6.3611093629270335e-15 -3.975693351829396e-16 -1.987846675914698e-16 -6.3611093629270335e-15 -3.975693351829396e-16 -1.987846675914698e-16 -6.3611093629270335e-15 -3.975693351829396e-16 -1.987846675914698e-16 -6.3611093629270335e-15 -3.975693351829396e-16 98.35502538905253 10.587374305744046 156.93850461846 105.00076137182862 1.0093266179998358e-14 7.744728989975909e-15 2.333800114414547e-14 87.42522076447692 -2.671234057501617e-14 1.5902773407317584e-15 1.5902773407317584e-15 -2.2069531490250793e-32 -160.94995065406985 9.073262437665303 -176.29820614521634 -124.58693004636814 2.218165086094369e-15 4.2238112925219355e-15 180.0 -11.365481470671348 -180.0 0.0 0.0 0.0 -11.472989024335824 9.69166958181616e-15 9.73592228631467e-16 1.3793457181406746e-33 1.987846675914698e-16 -7.951386703658792e-16
60.94450070858002 -46.647901725769046 383.80609588623054 -166.5177833357464 -72.68451824686586 -165.50148264643065 -18.876763082314017 25.51343433576937 34.009426813640225 29.227013240501282 -65.14965276713859 -40.113836659892705 -115.76714369902157 6.3611093629270335e-15 122.84713278979208 6.361109362927035e-15 1.5902773407317584e-15 -3.1805546814635176e-15 -29.218733843358613 -23.61349043591344 -16.532833857987455 149.64944639957048 40.17671976398395 -131.80513470602574 -91.94513535333685 -3.1805546814635168e-15 -38.80904881581214 0.0 0.0 0.0 0.012285931562070756 0.464398946391165 -5.592666183460273 -3.975693351829396e-16 3.4483642953516864e-34 -9.93923337957349e-17 -3.975693351829396e-16 3.4483642953516864e-34 -9.93923337957349e-17 -3.975693351829396e-16 3.4483642953516864e-34 -9.93923337957349e-17 -3.975693351829396e-16 3.4483642953516864e-34 -9.93923337957349e-17 98.27781876191817 15.333818330702718 155.58321904400592 101.98932453945595 -1.3889911337830303e-14 -3.0641352226693785e-15 2.899453151246091e-14 80.76854414520024 -3.3013582608434496e-14 0.0 0.0 0.0 -160.24737859736604 6.662794808561494 -179.2644033614183 -122.45847650197554 -7.654107076879797e-16 -1.39396143024169e-15 180.0 -8.924014360481086 -180.0 0.0 0.0 0.0 -12.034400358381749 1.1725648871947366e-14 4.434149512139465e-15 0.0 0.0 0.0
60.86411669254303 -47.054791760444644 383.61277256011965 -165.79210503744454 -72.32608739676623 -165.7699680381353 -19.98755249579386 25.99666443847335 34.74768709948593 28.907855740412895 -64.27526832736177 -39.11677893585 -113.40168240781192 0.0 124.71059948579551 6.3611093629270335e-15 0.0 0.0 -30.9642074251306 -25.52830914301224 -18.22192908078564 150.4652112179392 41.189022126210276 -133.9583737268501 -106.56804062798616 4.770832022195275e-15 -27.62421348957798 0.0 0.0 0.0 0.0032204001936810577 0.24259435018815556 -6.381138277556951 1.987846675914698e-16 -1.034509288605506e-33 -5.963540027744094e-16 1.987846675914698e-16 -1.034509288605506e-33 -5.963540027744094e-16 1.987846675914698e-16 -1.034509288605506e-33 -5.963540027744094e-16 1.987846675914698e-16 -1.034509288605506e-33 -5.963540027744094e-16 98.18213394615962 18.377988108080746 155.03314037846965 99.82682158737232 -1.3829617022315208e-14 -3.3256961153537993e-15 -1.3646557587434849e-14 76.36840542238183 1.4779057051328567e-14 0.0 3.1805546814635168e-15 0.0 -159.52604803745862 5.321236669189271 178.81244050359868 -120.75410792936701 1.5803022438552536e-14 -1.0815122503749637e-14 -180.0 -7.120009122461156 180.0 3.1805546814635168e-15 0.0 0.0 -12.703443478802702 -7.041298626935532e-15 8.162985603486453e-16 0.0 0.0 0.0
60.769405817985536 -47.405309772491464 383.4354721069336 -165.0225715364717 -71.85965438780364 -166.15477766176303 -21.057759523424306 26.41101211966389 35.62882088940406 27.932961574079762 -63.129024271946754 -38.85413271377814 -110.60491900258413 -9.54166404439055e-15 126.24144428241824 6.3611093629270335e-15 1.5902773407317584e-15 -7.951386703658792e-16 -31.028553805368887 -26.116190576208425 -17.82892079059185 149.25145004367798 42.46223014318843 -134.70589511730495 -133.32317910961038 -1.5902773407317584e-15 -21.049192018711945 0.0 0.0 0.0 -0.00035927656277802834 0.2643502986619791 -6.5678897260696045 0.0 0.0 3.975693351829396e-16 0.0 0.0 3.975693351829396e-16 0.0 0.0 3.975693351829396e-16 0.0 0.0 3.975693351829396e-16 98.11719576654582 20.54853893643615 154.67076286352443 98.15793328598438 2.2113002709294765e-14 -6.086326595842204e-15 9.289462443928596e-16 73.04034797014673 -8.603189521165041e-15 0.0 0.0 0.0 -158.80315044024317 4.404674269992398 177.35332116906216 -119.2160144579 6.291535908970337e-15 -1.8464209308008882e-15 -180.0 -5.726409750085838 180.0 1.5902773407317584e-15 0.0 0.0 -13.372707712592991 4.3195342381046646e-16 -1.5505292597083762e-15 1.1927080055488188e-15 0.0 0.0
